# xmcd
#
# Track frame offsets:
#	150
#	8776
#	19712
#	29485
#	39332
#	49420
#	59845
#	71383
#	80840
#	91255
#	101500
#	111874
#	122501
#	132934
#	142822
#	153766
#	164583
#	173576
#
# Disc length: 2473 seconds
#
# Revision: 1
# Processed by: cddbd v1.5.2PL0 Copyright (c) Steve Scherf et al.
# Submitted via: audiograbber 1.83.01
#
DISCID=e909a712
DTITLE=Fats Domino - Rare Dominos Vol.2
DYEAR=1990
DGENRE=Blues/Rock&Roll
TTITLE0=Yes My Darling
TTITLE1=Help Me
TTITLE2=Don't You Know I Love You
TTITLE3=Don't Know What's Wrong
TTITLE4=Oh Baby
TTITLE5=Don't Leave Me This Way
TTITLE6=Hey Fat Man
TTITLE7=How Long
TTITLE8=Korea Blues
TTITLE9=Mardi Grass In New Orleans
TTITLE10=I Guess I'll Be On My Way
TTITLE11=The Fat Man's Hop
TTITLE12=I'll Be Gone
TTITLE13=You Know I Miss You
TTITLE14=Little Bee
TTITLE15=Don't You Know
TTITLE16=I LIved My Life
TTITLE17=Trust In Me
EXTD=
EXTT0=
EXTT1=
EXTT2=
EXTT3=
EXTT4=
EXTT5=
EXTT6=
EXTT7=
EXTT8=
EXTT9=
EXTT10=
EXTT11=
EXTT12=
EXTT13=
EXTT14=
EXTT15=
EXTT16=
EXTT17=
PLAYORDER=
